@startuml

class AAUOC{
newLocation(l : Location) : void
newEvent(e : Event) : void
newPerson(p : Person) : void
informEvent(e : Event) : void
register(m : Member,e : Event) : void
}

class Location{
description : String
address : String
}

AAUOC o-- "0..*" Location

class Event{
date : Date
description : String
assign(l : Location) : void
}

AAUOC o-- "0..*" Event
Event "0..*" -- "1" Location

class Conference{
max_attendees : Integer
}

Event <|-- Conference
Conference -- BoardMeeting

class BoardMeeting

Event <|-- BoardMeeting


class Person{
name : String
}

AAUOC o-- "0..*" Person
Person "0..*" -- "0..*" Conference

class Member{
e-mail : String
}

Person <|-- Member
Member "0..*" -- "0..*" Event

class BoardMember

Member <|-- BoardMember
BoardMember "0..*" -- "0..*" BoardMeeting

@enduml